<svg id="visual" viewBox="0 0 960 540" width="960" height="540" xmlns="http://www.w3.org/2000/svg" xmlns:xlink="http://www.w3.org/1999/xlink" version="1.1"><rect x="0" y="0" width="960" height="540" fill="#023047"></rect><defs><linearGradient id="grad1_0" x1="43.8%" y1="0%" x2="100%" y2="100%"><stop offset="14.444444444444446%" stop-color="#fb8500" stop-opacity="1"></stop><stop offset="85.55555555555554%" stop-color="#fb8500" stop-opacity="1"></stop></linearGradient></defs><defs><linearGradient id="grad1_1" x1="43.8%" y1="0%" x2="100%" y2="100%"><stop offset="14.444444444444446%" stop-color="#fb8500" stop-opacity="1"></stop><stop offset="85.55555555555554%" stop-color="#fa5e43" stop-opacity="1"></stop></linearGradient></defs><defs><linearGradient id="grad1_2" x1="43.8%" y1="0%" x2="100%" y2="100%"><stop offset="14.444444444444446%" stop-color="#e34467" stop-opacity="1"></stop><stop offset="85.55555555555554%" stop-color="#fa5e43" stop-opacity="1"></stop></linearGradient></defs><defs><linearGradient id="grad1_3" x1="43.8%" y1="0%" x2="100%" y2="100%"><stop offset="14.444444444444446%" stop-color="#e34467" stop-opacity="1"></stop><stop offset="85.55555555555554%" stop-color="#ba3f7f" stop-opacity="1"></stop></linearGradient></defs><defs><linearGradient id="grad1_4" x1="43.8%" y1="0%" x2="100%" y2="100%"><stop offset="14.444444444444446%" stop-color="#874387" stop-opacity="1"></stop><stop offset="85.55555555555554%" stop-color="#ba3f7f" stop-opacity="1"></stop></linearGradient></defs><defs><linearGradient id="grad1_5" x1="43.8%" y1="0%" x2="100%" y2="100%"><stop offset="14.444444444444446%" stop-color="#874387" stop-opacity="1"></stop><stop offset="85.55555555555554%" stop-color="#50437e" stop-opacity="1"></stop></linearGradient></defs><defs><linearGradient id="grad1_6" x1="43.8%" y1="0%" x2="100%" y2="100%"><stop offset="14.444444444444446%" stop-color="#203c66" stop-opacity="1"></stop><stop offset="85.55555555555554%" stop-color="#50437e" stop-opacity="1"></stop></linearGradient></defs><defs><linearGradient id="grad1_7" x1="43.8%" y1="0%" x2="100%" y2="100%"><stop offset="14.444444444444446%" stop-color="#203c66" stop-opacity="1"></stop><stop offset="85.55555555555554%" stop-color="#023047" stop-opacity="1"></stop></linearGradient></defs><defs><linearGradient id="grad2_0" x1="0%" y1="0%" x2="56.3%" y2="100%"><stop offset="14.444444444444446%" stop-color="#fb8500" stop-opacity="1"></stop><stop offset="85.55555555555554%" stop-color="#fb8500" stop-opacity="1"></stop></linearGradient></defs><defs><linearGradient id="grad2_1" x1="0%" y1="0%" x2="56.3%" y2="100%"><stop offset="14.444444444444446%" stop-color="#fa5e43" stop-opacity="1"></stop><stop offset="85.55555555555554%" stop-color="#fb8500" stop-opacity="1"></stop></linearGradient></defs><defs><linearGradient id="grad2_2" x1="0%" y1="0%" x2="56.3%" y2="100%"><stop offset="14.444444444444446%" stop-color="#fa5e43" stop-opacity="1"></stop><stop offset="85.55555555555554%" stop-color="#e34467" stop-opacity="1"></stop></linearGradient></defs><defs><linearGradient id="grad2_3" x1="0%" y1="0%" x2="56.3%" y2="100%"><stop offset="14.444444444444446%" stop-color="#ba3f7f" stop-opacity="1"></stop><stop offset="85.55555555555554%" stop-color="#e34467" stop-opacity="1"></stop></linearGradient></defs><defs><linearGradient id="grad2_4" x1="0%" y1="0%" x2="56.3%" y2="100%"><stop offset="14.444444444444446%" stop-color="#ba3f7f" stop-opacity="1"></stop><stop offset="85.55555555555554%" stop-color="#874387" stop-opacity="1"></stop></linearGradient></defs><defs><linearGradient id="grad2_5" x1="0%" y1="0%" x2="56.3%" y2="100%"><stop offset="14.444444444444446%" stop-color="#50437e" stop-opacity="1"></stop><stop offset="85.55555555555554%" stop-color="#874387" stop-opacity="1"></stop></linearGradient></defs><defs><linearGradient id="grad2_6" x1="0%" y1="0%" x2="56.3%" y2="100%"><stop offset="14.444444444444446%" stop-color="#50437e" stop-opacity="1"></stop><stop offset="85.55555555555554%" stop-color="#203c66" stop-opacity="1"></stop></linearGradient></defs><defs><linearGradient id="grad2_7" x1="0%" y1="0%" x2="56.3%" y2="100%"><stop offset="14.444444444444446%" stop-color="#023047" stop-opacity="1"></stop><stop offset="85.55555555555554%" stop-color="#203c66" stop-opacity="1"></stop></linearGradient></defs><g transform="translate(960, 0)"><path d="M0 513C-58.8 512.4 -117.5 511.8 -156.1 480.3C-194.6 448.8 -212.9 386.5 -259.8 357.6C-306.7 328.7 -382.3 333.3 -415 301.5C-447.8 269.7 -437.8 201.6 -447 145.2C-456.2 88.9 -484.6 44.5 -513 0L0 0Z" fill="#0c3757"></path><path d="M0 448.9C-51.4 448.3 -102.8 447.8 -136.5 420.2C-170.3 392.7 -186.3 338.1 -227.3 312.9C-268.4 287.6 -334.5 291.7 -363.1 263.8C-391.8 236 -383.1 176.4 -391.1 127.1C-399.2 77.8 -424 38.9 -448.9 0L0 0Z" fill="#374073"></path><path d="M0 384.8C-44.1 384.3 -88.1 383.8 -117 360.2C-145.9 336.6 -159.7 289.8 -194.9 268.2C-230 246.5 -286.7 250 -311.3 226.2C-335.8 202.3 -328.3 151.2 -335.2 108.9C-342.1 66.7 -363.4 33.3 -384.7 0L0 0Z" fill="#6b4484"></path><path d="M0 320.6C-36.7 320.2 -73.5 319.9 -97.5 300.2C-121.6 280.5 -133.1 241.5 -162.4 223.5C-191.7 205.4 -238.9 208.3 -259.4 188.5C-279.9 168.6 -273.6 126 -279.4 90.8C-285.1 55.6 -302.9 27.8 -320.6 0L0 0Z" fill="#a14185"></path><path d="M0 256.5C-29.4 256.2 -58.8 255.9 -78 240.1C-97.3 224.4 -106.4 193.2 -129.9 178.8C-153.4 164.4 -191.1 166.7 -207.5 150.8C-223.9 134.9 -218.9 100.8 -223.5 72.6C-228.1 44.5 -242.3 22.2 -256.5 0L0 0Z" fill="#d03f74"></path><path d="M0 192.4C-22 192.1 -44.1 191.9 -58.5 180.1C-73 168.3 -79.8 144.9 -97.4 134.1C-115 123.3 -143.3 125 -155.6 113.1C-167.9 101.2 -164.2 75.6 -167.6 54.5C-171.1 33.3 -181.7 16.7 -192.4 0L0 0Z" fill="#f14e56"></path><path d="M0 128.3C-14.7 128.1 -29.4 127.9 -39 120.1C-48.6 112.2 -53.2 96.6 -65 89.4C-76.7 82.2 -95.6 83.3 -103.8 75.4C-111.9 67.4 -109.4 50.4 -111.7 36.3C-114 22.2 -121.1 11.1 -128.2 0L0 0Z" fill="#fd702c"></path><path d="M0 64.1C-7.3 64 -14.7 64 -19.5 60C-24.3 56.1 -26.6 48.3 -32.5 44.7C-38.3 41.1 -47.8 41.7 -51.9 37.7C-56 33.7 -54.7 25.2 -55.9 18.2C-57 11.1 -60.6 5.6 -64.1 0L0 0Z" fill="#fb8500"></path></g><g transform="translate(0, 540)"><path d="M0 -513C43.7 -478.2 87.4 -443.4 140.6 -432.7C193.8 -422.1 256.4 -435.7 301.5 -415C346.7 -394.4 374.3 -339.5 400.5 -291C426.6 -242.4 451.3 -200.1 469.8 -152.7C488.3 -105.2 500.7 -52.6 513 0L0 0Z" fill="#0c3757"></path><path d="M0 -448.9C38.3 -418.4 76.5 -387.9 123 -378.6C169.6 -369.3 224.4 -381.2 263.8 -363.1C303.3 -345.1 327.5 -297.1 350.4 -254.6C373.3 -212.1 394.9 -175.1 411.1 -133.6C427.3 -92.1 438.1 -46 448.9 0L0 0Z" fill="#374073"></path><path d="M0 -384.7C32.8 -358.6 65.6 -332.5 105.5 -324.5C145.3 -316.6 192.3 -326.8 226.2 -311.3C260 -295.8 280.7 -254.6 300.3 -218.2C320 -181.8 338.5 -150.1 352.4 -114.5C366.2 -78.9 375.5 -39.5 384.8 0L0 0Z" fill="#6b4484"></path><path d="M0 -320.6C27.3 -298.9 54.6 -277.1 87.9 -270.5C121.1 -263.8 160.3 -272.3 188.5 -259.4C216.7 -246.5 233.9 -212.2 250.3 -181.8C266.6 -151.5 282.1 -125.1 293.6 -95.4C305.2 -65.8 312.9 -32.9 320.6 0L0 0Z" fill="#a14185"></path><path d="M0 -256.5C21.9 -239.1 43.7 -221.7 70.3 -216.4C96.9 -211.1 128.2 -217.8 150.8 -207.5C173.3 -197.2 187.2 -169.8 200.2 -145.5C213.3 -121.2 225.7 -100 234.9 -76.3C244.2 -52.6 250.3 -26.3 256.5 0L0 0Z" fill="#d03f74"></path><path d="M0 -192.4C16.4 -179.3 32.8 -166.3 52.7 -162.3C72.7 -158.3 96.2 -163.4 113.1 -155.6C130 -147.9 140.4 -127.3 150.2 -109.1C160 -90.9 169.2 -75 176.2 -57.2C183.1 -39.5 187.7 -19.7 192.4 0L0 0Z" fill="#f14e56"></path><path d="M0 -128.2C10.9 -119.5 21.9 -110.8 35.2 -108.2C48.4 -105.5 64.1 -108.9 75.4 -103.8C86.7 -98.6 93.6 -84.9 100.1 -72.7C106.7 -60.6 112.8 -50 117.5 -38.2C122.1 -26.3 125.2 -13.2 128.3 0L0 0Z" fill="#fd702c"></path><path d="M0 -64.1C5.5 -59.8 10.9 -55.4 17.6 -54.1C24.2 -52.8 32.1 -54.5 37.7 -51.9C43.3 -49.3 46.8 -42.4 50.1 -36.4C53.3 -30.3 56.4 -25 58.7 -19.1C61 -13.2 62.6 -6.6 64.1 0L0 0Z" fill="#fb8500"></path></g></svg>