<svg id="visual" viewBox="0 0 960 540" width="960" height="540" xmlns="http://www.w3.org/2000/svg" xmlns:xlink="http://www.w3.org/1999/xlink" version="1.1"><rect x="0" y="0" width="960" height="540" fill="#fb8500"></rect><defs><linearGradient id="grad1_0" x1="43.8%" y1="0%" x2="100%" y2="100%"><stop offset="14.444444444444446%" stop-color="#023047" stop-opacity="1"></stop><stop offset="85.55555555555554%" stop-color="#023047" stop-opacity="1"></stop></linearGradient></defs><defs><linearGradient id="grad1_1" x1="43.8%" y1="0%" x2="100%" y2="100%"><stop offset="14.444444444444446%" stop-color="#023047" stop-opacity="1"></stop><stop offset="85.55555555555554%" stop-color="#203c66" stop-opacity="1"></stop></linearGradient></defs><defs><linearGradient id="grad1_2" x1="43.8%" y1="0%" x2="100%" y2="100%"><stop offset="14.444444444444446%" stop-color="#50437e" stop-opacity="1"></stop><stop offset="85.55555555555554%" stop-color="#203c66" stop-opacity="1"></stop></linearGradient></defs><defs><linearGradient id="grad1_3" x1="43.8%" y1="0%" x2="100%" y2="100%"><stop offset="14.444444444444446%" stop-color="#50437e" stop-opacity="1"></stop><stop offset="85.55555555555554%" stop-color="#874387" stop-opacity="1"></stop></linearGradient></defs><defs><linearGradient id="grad1_4" x1="43.8%" y1="0%" x2="100%" y2="100%"><stop offset="14.444444444444446%" stop-color="#ba3f7f" stop-opacity="1"></stop><stop offset="85.55555555555554%" stop-color="#874387" stop-opacity="1"></stop></linearGradient></defs><defs><linearGradient id="grad1_5" x1="43.8%" y1="0%" x2="100%" y2="100%"><stop offset="14.444444444444446%" stop-color="#ba3f7f" stop-opacity="1"></stop><stop offset="85.55555555555554%" stop-color="#e34467" stop-opacity="1"></stop></linearGradient></defs><defs><linearGradient id="grad1_6" x1="43.8%" y1="0%" x2="100%" y2="100%"><stop offset="14.444444444444446%" stop-color="#fa5e43" stop-opacity="1"></stop><stop offset="85.55555555555554%" stop-color="#e34467" stop-opacity="1"></stop></linearGradient></defs><defs><linearGradient id="grad1_7" x1="43.8%" y1="0%" x2="100%" y2="100%"><stop offset="14.444444444444446%" stop-color="#fa5e43" stop-opacity="1"></stop><stop offset="85.55555555555554%" stop-color="#fb8500" stop-opacity="1"></stop></linearGradient></defs><defs><linearGradient id="grad2_0" x1="0%" y1="0%" x2="56.3%" y2="100%"><stop offset="14.444444444444446%" stop-color="#023047" stop-opacity="1"></stop><stop offset="85.55555555555554%" stop-color="#023047" stop-opacity="1"></stop></linearGradient></defs><defs><linearGradient id="grad2_1" x1="0%" y1="0%" x2="56.3%" y2="100%"><stop offset="14.444444444444446%" stop-color="#203c66" stop-opacity="1"></stop><stop offset="85.55555555555554%" stop-color="#023047" stop-opacity="1"></stop></linearGradient></defs><defs><linearGradient id="grad2_2" x1="0%" y1="0%" x2="56.3%" y2="100%"><stop offset="14.444444444444446%" stop-color="#203c66" stop-opacity="1"></stop><stop offset="85.55555555555554%" stop-color="#50437e" stop-opacity="1"></stop></linearGradient></defs><defs><linearGradient id="grad2_3" x1="0%" y1="0%" x2="56.3%" y2="100%"><stop offset="14.444444444444446%" stop-color="#874387" stop-opacity="1"></stop><stop offset="85.55555555555554%" stop-color="#50437e" stop-opacity="1"></stop></linearGradient></defs><defs><linearGradient id="grad2_4" x1="0%" y1="0%" x2="56.3%" y2="100%"><stop offset="14.444444444444446%" stop-color="#874387" stop-opacity="1"></stop><stop offset="85.55555555555554%" stop-color="#ba3f7f" stop-opacity="1"></stop></linearGradient></defs><defs><linearGradient id="grad2_5" x1="0%" y1="0%" x2="56.3%" y2="100%"><stop offset="14.444444444444446%" stop-color="#e34467" stop-opacity="1"></stop><stop offset="85.55555555555554%" stop-color="#ba3f7f" stop-opacity="1"></stop></linearGradient></defs><defs><linearGradient id="grad2_6" x1="0%" y1="0%" x2="56.3%" y2="100%"><stop offset="14.444444444444446%" stop-color="#e34467" stop-opacity="1"></stop><stop offset="85.55555555555554%" stop-color="#fa5e43" stop-opacity="1"></stop></linearGradient></defs><defs><linearGradient id="grad2_7" x1="0%" y1="0%" x2="56.3%" y2="100%"><stop offset="14.444444444444446%" stop-color="#fb8500" stop-opacity="1"></stop><stop offset="85.55555555555554%" stop-color="#fa5e43" stop-opacity="1"></stop></linearGradient></defs><g transform="translate(960, 0)"><path d="M0 540C-53.9 491.7 -107.8 443.4 -175.7 424.1C-243.5 404.7 -325.1 414.4 -381.8 381.8C-438.5 349.3 -470.2 274.6 -492.4 204C-514.6 133.3 -527.3 66.7 -540 0L0 0Z" fill="#fd702c"></path><path d="M0 472.5C-47.2 430.2 -94.4 388 -153.7 371.1C-213 354.1 -284.5 362.6 -334.1 334.1C-383.7 305.7 -411.5 240.3 -430.9 178.5C-450.3 116.6 -461.4 58.3 -472.5 0L0 0Z" fill="#f14e56"></path><path d="M0 405C-40.4 368.8 -80.9 332.5 -131.7 318C-182.6 303.5 -243.9 310.8 -286.4 286.4C-328.9 262 -352.7 206 -369.3 153C-386 100 -395.5 50 -405 0L0 0Z" fill="#d03f74"></path><path d="M0 337.5C-33.7 307.3 -67.4 277.1 -109.8 265C-152.2 253 -203.2 259 -238.6 238.6C-274.1 218.3 -293.9 171.6 -307.8 127.5C-321.6 83.3 -329.6 41.7 -337.5 0L0 0Z" fill="#a14185"></path><path d="M0 270C-27 245.8 -53.9 221.7 -87.8 212C-121.7 202.4 -162.6 207.2 -190.9 190.9C-219.3 174.7 -235.1 137.3 -246.2 102C-257.3 66.7 -263.7 33.3 -270 0L0 0Z" fill="#6b4484"></path><path d="M0 202.5C-20.2 184.4 -40.4 166.3 -65.9 159C-91.3 151.8 -121.9 155.4 -143.2 143.2C-164.4 131 -176.3 103 -184.7 76.5C-193 50 -197.7 25 -202.5 0L0 0Z" fill="#374073"></path><path d="M0 135C-13.5 122.9 -27 110.8 -43.9 106C-60.9 101.2 -81.3 103.6 -95.5 95.5C-109.6 87.3 -117.6 68.7 -123.1 51C-128.7 33.3 -131.8 16.7 -135 0L0 0Z" fill="#0c3757"></path><path d="M0 67.5C-6.7 61.5 -13.5 55.4 -22 53C-30.4 50.6 -40.6 51.8 -47.7 47.7C-54.8 43.7 -58.8 34.3 -61.6 25.5C-64.3 16.7 -65.9 8.3 -67.5 0L0 0Z" fill="#023047"></path></g><g transform="translate(0, 540)"><path d="M0 -540C76.2 -534.7 152.4 -529.4 203.2 -490.6C254 -451.8 279.5 -379.4 330.9 -330.9C382.3 -282.4 459.7 -257.8 498.9 -206.6C538.1 -155.5 539 -77.7 540 0L0 0Z" fill="#fd702c"></path><path d="M0 -472.5C66.7 -467.9 133.3 -463.2 177.8 -429.3C222.3 -395.3 244.6 -332 289.6 -289.6C334.6 -247.1 402.3 -225.6 436.5 -180.8C470.8 -136 471.7 -68 472.5 0L0 0Z" fill="#f14e56"></path><path d="M0 -405C57.1 -401 114.3 -397.1 152.4 -367.9C190.5 -338.8 209.6 -284.6 248.2 -248.2C286.8 -211.8 344.8 -193.4 374.2 -155C403.5 -116.6 404.3 -58.3 405 0L0 0Z" fill="#d03f74"></path><path d="M0 -337.5C47.6 -334.2 95.2 -330.9 127 -306.6C158.8 -282.3 174.7 -237.1 206.8 -206.8C239 -176.5 287.3 -161.1 311.8 -129.2C336.3 -97.2 336.9 -48.6 337.5 0L0 0Z" fill="#a14185"></path><path d="M0 -270C38.1 -267.4 76.2 -264.7 101.6 -245.3C127 -225.9 139.8 -189.7 165.5 -165.5C191.2 -141.2 229.9 -128.9 249.4 -103.3C269 -77.7 269.5 -38.9 270 0L0 0Z" fill="#6b4484"></path><path d="M0 -202.5C28.6 -200.5 57.1 -198.5 76.2 -184C95.3 -169.4 104.8 -142.3 124.1 -124.1C143.4 -105.9 172.4 -96.7 187.1 -77.5C201.8 -58.3 202.1 -29.2 202.5 0L0 0Z" fill="#374073"></path><path d="M0 -135C19 -133.7 38.1 -132.4 50.8 -122.6C63.5 -112.9 69.9 -94.9 82.7 -82.7C95.6 -70.6 114.9 -64.5 124.7 -51.7C134.5 -38.9 134.8 -19.4 135 0L0 0Z" fill="#0c3757"></path><path d="M0 -67.5C9.5 -66.8 19 -66.2 25.4 -61.3C31.8 -56.5 34.9 -47.4 41.4 -41.4C47.8 -35.3 57.5 -32.2 62.4 -25.8C67.3 -19.4 67.4 -9.7 67.5 0L0 0Z" fill="#023047"></path></g></svg>