<svg id="visual" viewBox="0 0 960 540" width="960" height="540" xmlns="http://www.w3.org/2000/svg" xmlns:xlink="http://www.w3.org/1999/xlink" version="1.1"><rect x="0" y="0" width="960" height="540" fill="#fb8500"></rect><defs><linearGradient id="grad1_0" x1="43.8%" y1="100%" x2="100%" y2="0%"><stop offset="14.444444444444446%" stop-color="#023047" stop-opacity="1"></stop><stop offset="85.55555555555554%" stop-color="#023047" stop-opacity="1"></stop></linearGradient></defs><defs><linearGradient id="grad1_1" x1="43.8%" y1="100%" x2="100%" y2="0%"><stop offset="14.444444444444446%" stop-color="#023047" stop-opacity="1"></stop><stop offset="85.55555555555554%" stop-color="#203c66" stop-opacity="1"></stop></linearGradient></defs><defs><linearGradient id="grad1_2" x1="43.8%" y1="100%" x2="100%" y2="0%"><stop offset="14.444444444444446%" stop-color="#50437e" stop-opacity="1"></stop><stop offset="85.55555555555554%" stop-color="#203c66" stop-opacity="1"></stop></linearGradient></defs><defs><linearGradient id="grad1_3" x1="43.8%" y1="100%" x2="100%" y2="0%"><stop offset="14.444444444444446%" stop-color="#50437e" stop-opacity="1"></stop><stop offset="85.55555555555554%" stop-color="#874387" stop-opacity="1"></stop></linearGradient></defs><defs><linearGradient id="grad1_4" x1="43.8%" y1="100%" x2="100%" y2="0%"><stop offset="14.444444444444446%" stop-color="#ba3f7f" stop-opacity="1"></stop><stop offset="85.55555555555554%" stop-color="#874387" stop-opacity="1"></stop></linearGradient></defs><defs><linearGradient id="grad1_5" x1="43.8%" y1="100%" x2="100%" y2="0%"><stop offset="14.444444444444446%" stop-color="#ba3f7f" stop-opacity="1"></stop><stop offset="85.55555555555554%" stop-color="#e34467" stop-opacity="1"></stop></linearGradient></defs><defs><linearGradient id="grad1_6" x1="43.8%" y1="100%" x2="100%" y2="0%"><stop offset="14.444444444444446%" stop-color="#fa5e43" stop-opacity="1"></stop><stop offset="85.55555555555554%" stop-color="#e34467" stop-opacity="1"></stop></linearGradient></defs><defs><linearGradient id="grad1_7" x1="43.8%" y1="100%" x2="100%" y2="0%"><stop offset="14.444444444444446%" stop-color="#fa5e43" stop-opacity="1"></stop><stop offset="85.55555555555554%" stop-color="#fb8500" stop-opacity="1"></stop></linearGradient></defs><defs><linearGradient id="grad2_0" x1="0%" y1="100%" x2="56.3%" y2="0%"><stop offset="14.444444444444446%" stop-color="#023047" stop-opacity="1"></stop><stop offset="85.55555555555554%" stop-color="#023047" stop-opacity="1"></stop></linearGradient></defs><defs><linearGradient id="grad2_1" x1="0%" y1="100%" x2="56.3%" y2="0%"><stop offset="14.444444444444446%" stop-color="#203c66" stop-opacity="1"></stop><stop offset="85.55555555555554%" stop-color="#023047" stop-opacity="1"></stop></linearGradient></defs><defs><linearGradient id="grad2_2" x1="0%" y1="100%" x2="56.3%" y2="0%"><stop offset="14.444444444444446%" stop-color="#203c66" stop-opacity="1"></stop><stop offset="85.55555555555554%" stop-color="#50437e" stop-opacity="1"></stop></linearGradient></defs><defs><linearGradient id="grad2_3" x1="0%" y1="100%" x2="56.3%" y2="0%"><stop offset="14.444444444444446%" stop-color="#874387" stop-opacity="1"></stop><stop offset="85.55555555555554%" stop-color="#50437e" stop-opacity="1"></stop></linearGradient></defs><defs><linearGradient id="grad2_4" x1="0%" y1="100%" x2="56.3%" y2="0%"><stop offset="14.444444444444446%" stop-color="#874387" stop-opacity="1"></stop><stop offset="85.55555555555554%" stop-color="#ba3f7f" stop-opacity="1"></stop></linearGradient></defs><defs><linearGradient id="grad2_5" x1="0%" y1="100%" x2="56.3%" y2="0%"><stop offset="14.444444444444446%" stop-color="#e34467" stop-opacity="1"></stop><stop offset="85.55555555555554%" stop-color="#ba3f7f" stop-opacity="1"></stop></linearGradient></defs><defs><linearGradient id="grad2_6" x1="0%" y1="100%" x2="56.3%" y2="0%"><stop offset="14.444444444444446%" stop-color="#e34467" stop-opacity="1"></stop><stop offset="85.55555555555554%" stop-color="#fa5e43" stop-opacity="1"></stop></linearGradient></defs><defs><linearGradient id="grad2_7" x1="0%" y1="100%" x2="56.3%" y2="0%"><stop offset="14.444444444444446%" stop-color="#fb8500" stop-opacity="1"></stop><stop offset="85.55555555555554%" stop-color="#fa5e43" stop-opacity="1"></stop></linearGradient></defs><g transform="translate(960, 540)"><path d="M-540 0C-491.7 -53.9 -443.4 -107.8 -424.1 -175.7C-404.7 -243.5 -414.4 -325.1 -381.8 -381.8C-349.3 -438.5 -274.6 -470.2 -204 -492.4C-133.3 -514.6 -66.7 -527.3 0 -540L0 0Z" fill="#fd702c"></path><path d="M-472.5 0C-430.2 -47.2 -388 -94.4 -371.1 -153.7C-354.1 -213 -362.6 -284.5 -334.1 -334.1C-305.7 -383.7 -240.3 -411.5 -178.5 -430.9C-116.6 -450.3 -58.3 -461.4 0 -472.5L0 0Z" fill="#f14e56"></path><path d="M-405 0C-368.8 -40.4 -332.5 -80.9 -318 -131.7C-303.5 -182.6 -310.8 -243.9 -286.4 -286.4C-262 -328.9 -206 -352.7 -153 -369.3C-100 -386 -50 -395.5 0 -405L0 0Z" fill="#d03f74"></path><path d="M-337.5 0C-307.3 -33.7 -277.1 -67.4 -265 -109.8C-253 -152.2 -259 -203.2 -238.6 -238.6C-218.3 -274.1 -171.6 -293.9 -127.5 -307.8C-83.3 -321.6 -41.7 -329.6 0 -337.5L0 0Z" fill="#a14185"></path><path d="M-270 0C-245.8 -27 -221.7 -53.9 -212 -87.8C-202.4 -121.7 -207.2 -162.6 -190.9 -190.9C-174.7 -219.3 -137.3 -235.1 -102 -246.2C-66.7 -257.3 -33.3 -263.7 0 -270L0 0Z" fill="#6b4484"></path><path d="M-202.5 0C-184.4 -20.2 -166.3 -40.4 -159 -65.9C-151.8 -91.3 -155.4 -121.9 -143.2 -143.2C-131 -164.4 -103 -176.3 -76.5 -184.7C-50 -193 -25 -197.7 0 -202.5L0 0Z" fill="#374073"></path><path d="M-135 0C-122.9 -13.5 -110.8 -27 -106 -43.9C-101.2 -60.9 -103.6 -81.3 -95.5 -95.5C-87.3 -109.6 -68.7 -117.6 -51 -123.1C-33.3 -128.7 -16.7 -131.8 0 -135L0 0Z" fill="#0c3757"></path><path d="M-67.5 0C-61.5 -6.7 -55.4 -13.5 -53 -22C-50.6 -30.4 -51.8 -40.6 -47.7 -47.7C-43.7 -54.8 -34.3 -58.8 -25.5 -61.6C-16.7 -64.3 -8.3 -65.9 0 -67.5L0 0Z" fill="#023047"></path></g><g transform="translate(0, 0)"><path d="M540 0C534.7 76.2 529.4 152.4 490.6 203.2C451.8 254 379.4 279.5 330.9 330.9C282.4 382.3 257.8 459.7 206.6 498.9C155.5 538.1 77.7 539 0 540L0 0Z" fill="#fd702c"></path><path d="M472.5 0C467.9 66.7 463.2 133.3 429.3 177.8C395.3 222.3 332 244.6 289.6 289.6C247.1 334.6 225.6 402.3 180.8 436.5C136 470.8 68 471.7 0 472.5L0 0Z" fill="#f14e56"></path><path d="M405 0C401 57.1 397.1 114.3 367.9 152.4C338.8 190.5 284.6 209.6 248.2 248.2C211.8 286.8 193.4 344.8 155 374.2C116.6 403.5 58.3 404.3 0 405L0 0Z" fill="#d03f74"></path><path d="M337.5 0C334.2 47.6 330.9 95.2 306.6 127C282.3 158.8 237.1 174.7 206.8 206.8C176.5 239 161.1 287.3 129.2 311.8C97.2 336.3 48.6 336.9 0 337.5L0 0Z" fill="#a14185"></path><path d="M270 0C267.4 38.1 264.7 76.2 245.3 101.6C225.9 127 189.7 139.8 165.5 165.5C141.2 191.2 128.9 229.9 103.3 249.4C77.7 269 38.9 269.5 0 270L0 0Z" fill="#6b4484"></path><path d="M202.5 0C200.5 28.6 198.5 57.1 184 76.2C169.4 95.3 142.3 104.8 124.1 124.1C105.9 143.4 96.7 172.4 77.5 187.1C58.3 201.8 29.2 202.1 0 202.5L0 0Z" fill="#374073"></path><path d="M135 0C133.7 19 132.4 38.1 122.6 50.8C112.9 63.5 94.9 69.9 82.7 82.7C70.6 95.6 64.5 114.9 51.7 124.7C38.9 134.5 19.4 134.8 0 135L0 0Z" fill="#0c3757"></path><path d="M67.5 0C66.8 9.5 66.2 19 61.3 25.4C56.5 31.8 47.4 34.9 41.4 41.4C35.3 47.8 32.2 57.5 25.8 62.4C19.4 67.3 9.7 67.4 0 67.5L0 0Z" fill="#023047"></path></g></svg>